<?xml version="1.0" encoding="utf-8"?>
<!-- Generator: Adobe Illustrator 16.0.0, SVG Export Plug-In . SVG Version: 6.00 Build 0)  -->
<!DOCTYPE svg PUBLIC "-//W3C//DTD SVG 1.1//EN" "http://www.w3.org/Graphics/SVG/1.1/DTD/svg11.dtd">
<svg version="1.1" id="Layer_1" xmlns="http://www.w3.org/2000/svg" xmlns:xlink="http://www.w3.org/1999/xlink" x="0px" y="0px"
	 width="30px" height="30px" viewBox="0 0 30 30" enable-background="new 0 0 30 30" xml:space="preserve">
<g id="XMLID_1346_">
	<radialGradient id="XMLID_2_" cx="-0.7505" cy="30.0996" r="55.4668" gradientUnits="userSpaceOnUse">
		<stop  offset="0" style="stop-color:#F5EC53"/>
		<stop  offset="0.2412" style="stop-color:#E48244"/>
		<stop  offset="0.3974" style="stop-color:#D15767"/>
		<stop  offset="0.4888" style="stop-color:#C84278"/>
		<stop  offset="1" style="stop-color:#192CFA"/>
	</radialGradient>
	<path id="XMLID_1418_" fill="url(#XMLID_2_)" d="M15,30L15,30C6.716,30,0,23.285,0,15l0,0C0,6.715,6.716,0,15,0l0,0
		c8.284,0,15,6.716,15,15l0,0C30,23.285,23.284,30,15,30z"/>
	<g id="XMLID_1347_">
		<path id="XMLID_1352_" fill="#FFFFFF" d="M15,8.257c2.196,0,2.456,0.008,3.323,0.048c0.802,0.036,1.237,0.171,1.527,0.283
			c0.384,0.149,0.658,0.327,0.945,0.615c0.288,0.288,0.467,0.562,0.615,0.945c0.113,0.29,0.247,0.726,0.284,1.527
			c0.039,0.867,0.048,1.128,0.048,3.324c0,2.195-0.009,2.457-0.048,3.322c-0.037,0.803-0.171,1.238-0.284,1.527
			c-0.148,0.385-0.327,0.658-0.615,0.947c-0.287,0.287-0.562,0.465-0.945,0.613c-0.29,0.113-0.726,0.248-1.527,0.285
			c-0.867,0.039-1.127,0.047-3.323,0.047s-2.456-0.008-3.323-0.047c-0.802-0.037-1.237-0.172-1.527-0.285
			c-0.384-0.148-0.658-0.326-0.945-0.613c-0.288-0.289-0.467-0.563-0.615-0.947c-0.112-0.289-0.247-0.725-0.284-1.527
			C8.266,17.457,8.257,17.195,8.257,15c0-2.196,0.009-2.457,0.048-3.324c0.037-0.802,0.172-1.237,0.284-1.527
			c0.148-0.384,0.327-0.657,0.615-0.945c0.287-0.288,0.562-0.466,0.945-0.615c0.29-0.112,0.726-0.247,1.527-0.283
			C12.544,8.265,12.804,8.257,15,8.257 M15,6.775c-2.233,0-2.514,0.009-3.391,0.049c-0.876,0.04-1.474,0.179-1.997,0.382
			c-0.541,0.21-0.999,0.491-1.456,0.949C7.698,8.613,7.418,9.072,7.208,9.613c-0.204,0.522-0.343,1.12-0.383,1.996
			c-0.04,0.877-0.05,1.157-0.05,3.392c0,2.234,0.01,2.513,0.05,3.39c0.04,0.875,0.179,1.473,0.383,1.996
			c0.21,0.541,0.49,1,0.948,1.457c0.457,0.457,0.915,0.738,1.456,0.949c0.523,0.203,1.121,0.342,1.997,0.383
			c0.877,0.039,1.157,0.049,3.391,0.049s2.514-0.01,3.391-0.049c0.876-0.041,1.474-0.18,1.997-0.383
			c0.541-0.211,0.999-0.492,1.456-0.949c0.458-0.457,0.738-0.916,0.949-1.457c0.203-0.523,0.342-1.121,0.382-1.996
			c0.04-0.877,0.05-1.156,0.05-3.39c0-2.234-0.01-2.515-0.05-3.392c-0.04-0.876-0.179-1.474-0.382-1.996
			c-0.211-0.541-0.491-1-0.949-1.457c-0.457-0.458-0.915-0.739-1.456-0.949c-0.523-0.203-1.121-0.342-1.997-0.382
			C17.514,6.785,17.233,6.775,15,6.775"/>
		<path id="XMLID_1349_" fill="#FFFFFF" d="M15,10.777c-2.332,0-4.224,1.89-4.224,4.224c0,2.332,1.892,4.222,4.224,4.222
			c2.333,0,4.224-1.891,4.224-4.222C19.224,12.667,17.333,10.777,15,10.777 M15,17.742c-1.514,0-2.741-1.229-2.741-2.742
			c0-1.515,1.228-2.742,2.741-2.742s2.741,1.228,2.741,2.742C17.741,16.514,16.514,17.742,15,17.742"/>
		<path id="XMLID_1348_" fill="#FFFFFF" d="M20.377,10.61c0,0.545-0.441,0.986-0.986,0.986c-0.546,0-0.987-0.441-0.987-0.986
			s0.441-0.987,0.987-0.987C19.936,9.623,20.377,10.065,20.377,10.61"/>
	</g>
</g>
</svg>
