<?xml version="1.0" encoding="utf-8"?>
<!-- Generator: Adobe Illustrator 16.0.0, SVG Export Plug-In . SVG Version: 6.00 Build 0)  -->
<!DOCTYPE svg PUBLIC "-//W3C//DTD SVG 1.1//EN" "http://www.w3.org/Graphics/SVG/1.1/DTD/svg11.dtd">
<svg version="1.1" id="Layer_1" xmlns="http://www.w3.org/2000/svg" xmlns:xlink="http://www.w3.org/1999/xlink" x="0px" y="0px"
	 width="30px" height="30px" viewBox="0 0 30 30" enable-background="new 0 0 30 30" xml:space="preserve">
<g id="XMLID_1419_">
	<path id="XMLID_1421_" fill="#3E5C9A" d="M15,30L15,30C6.716,30,0,23.285,0,15l0,0C0,6.715,6.716,0,15,0l0,0
		c8.284,0,15,6.716,15,15l0,0C30,23.285,23.284,30,15,30z"/>
	<path id="XMLID_1420_" fill="#FFFFFF" d="M12.714,24.066h3.651v-9.144h2.548l0.271-3.061h-2.819c0,0,0-1.143,0-1.744
		c0-0.722,0.146-1.007,0.844-1.007c0.562,0,1.976,0,1.976,0V5.933c0,0-2.083,0-2.527,0c-2.718,0-3.943,1.197-3.943,3.487
		c0,1.996,0,2.441,0,2.441h-1.899v3.1h1.899V24.066z"/>
</g>
</svg>
