<?xml version="1.0" encoding="utf-8"?>
<!-- Generator: Adobe Illustrator 16.0.0, SVG Export Plug-In . SVG Version: 6.00 Build 0)  -->
<!DOCTYPE svg PUBLIC "-//W3C//DTD SVG 1.1//EN" "http://www.w3.org/Graphics/SVG/1.1/DTD/svg11.dtd">
<svg version="1.1" id="Layer_1" xmlns="http://www.w3.org/2000/svg" xmlns:xlink="http://www.w3.org/1999/xlink" x="0px" y="0px"
	 width="30px" height="30px" viewBox="0 0 30 30" enable-background="new 0 0 30 30" xml:space="preserve">
<g id="XMLID_1182_">
	<path id="XMLID_1184_" fill="#FAF807" d="M15,30L15,30C6.715,30,0,23.284,0,15l0,0C0,6.715,6.715,0,15,0l0,0
		c8.284,0,15,6.715,15,15l0,0C30,23.284,23.284,30,15,30z"/>
	<path id="XMLID_1183_" fill-rule="evenodd" clip-rule="evenodd" fill="#FFFFFF" stroke="#222221" stroke-miterlimit="10" d="
		M23.692,19.351v-0.004c-0.005-0.005-0.009-0.005-0.018-0.013c0,0,0,0-0.003,0l0,0c-0.212-0.134-0.429-0.154-0.563-0.204
		c-0.004,0-0.009,0-0.009-0.004c-0.921-0.289-1.716-0.917-2.311-1.683c-0.33-0.429-0.607-0.89-0.791-1.382c0-0.005,0-0.005,0-0.009
		c-0.073-0.212-0.077-0.448,0.028-0.591c0,0,0.004,0,0.004-0.004c0.167-0.236,0.474-0.388,0.795-0.506c0.005,0,0.005,0,0.005,0
		c0.362-0.126,0.753-0.269,1.075-0.555c0.005,0,0.005-0.004,0.009-0.004c0.049-0.044,0.109-0.105,0.154-0.199
		c0.008-0.021,0.021-0.045,0.024-0.073c0.024-0.086,0.024-0.191-0.021-0.281c0-0.004,0-0.004,0-0.004
		c-0.093-0.188-0.252-0.29-0.374-0.359h-0.005c-0.199-0.118-0.436-0.126-0.644-0.057l0,0h-0.004
		c-0.221,0.065-0.404,0.146-0.571,0.167c-0.004,0-0.008,0-0.012,0.004c-0.236,0.041-0.469,0.049-0.648-0.017
		c-0.004-0.023-0.004-0.077-0.013-0.143h0.005c-0.017-0.391,0.02-0.795,0.024-1.215c0,0,0,0,0-0.004
		c0.021-0.636,0.045-1.288-0.05-1.948c0-0.004,0-0.008,0-0.008c-0.207-1.113-0.921-2.07-1.825-2.707
		c-0.656-0.464-1.438-0.721-2.233-0.795l0,0c-0.273-0.024-0.538-0.033-0.803-0.033c-1.072,0.008-2.186,0.29-3.054,0.97
		c-0.652,0.509-1.166,1.186-1.487,1.941v0.004c-0.311,0.773-0.281,1.602-0.241,2.367l0,0c0.024,0.539,0.086,1.061,0.037,1.558
		c-0.004,0.017-0.004,0.024-0.008,0.033c-0.241,0.044-0.506,0.027-0.767-0.021H9.397c-0.18-0.028-0.371-0.102-0.587-0.163
		c-0.005,0-0.009,0-0.013-0.004c-0.208-0.044-0.416,0.013-0.57,0.131c-0.004,0-0.009,0-0.009,0.004
		c-0.004,0.004-0.008,0.004-0.008,0.009c-0.131,0.081-0.306,0.224-0.313,0.468c-0.004,0.017,0,0.029,0,0.045
		c0.004,0,0,0.005,0.004,0.005c0.024,0.143,0.114,0.248,0.195,0.317c0.082,0.069,0.155,0.114,0.2,0.151
		c0.004,0,0.008,0.003,0.012,0.008c0.392,0.261,0.823,0.375,1.203,0.521l0,0c0.261,0.114,0.484,0.289,0.537,0.514
		c0.065,0.281-0.057,0.607-0.212,0.921v0.005c-0.424,0.831-1.051,1.557-1.825,2.091c-0.408,0.277-0.864,0.484-1.342,0.611
		c-0.004,0-0.012,0.004-0.02,0.008c-0.099,0.037-0.331,0.057-0.478,0.277c-0.008,0.017-0.017,0.032-0.024,0.053
		c-0.049,0.139,0.008,0.29,0.078,0.375c0.064,0.078,0.138,0.126,0.203,0.159c0.004,0,0.008,0.004,0.013,0.004
		c0.398,0.232,0.84,0.33,1.238,0.433c0.005,0,0.005,0.004,0.005,0.004c0.289,0.061,0.558,0.098,0.774,0.191
		c0.008,0.017,0.032,0.09,0.081,0.212c0.073,0.22,0.106,0.477,0.188,0.75c0.024,0.073,0.09,0.135,0.167,0.151
		c0.184,0.04,0.281-0.021,0.298-0.024c0.008,0,0.017,0,0.024,0c0.669-0.119,1.341-0.221,1.957-0.07l0,0
		c0.644,0.172,1.206,0.615,1.838,0.994v0.005l0,0c0.42,0.261,0.904,0.518,1.468,0.538l0,0c0,0,0,0,0.004,0
		c0.424,0.024,0.835-0.004,1.243-0.028c0.004,0,0.004,0,0.008,0c0.347-0.033,0.681-0.151,0.979-0.335
		c0.004-0.004,0.008-0.008,0.012-0.008c0.665-0.379,1.252-0.831,1.899-1.117h0.004c0.209-0.073,0.474-0.068,0.763-0.089
		c0.004,0,0.009,0,0.009,0c0.537-0.017,1.071,0.012,1.605,0.081c0.016,0.004,0.036,0.004,0.053,0
		c0.073-0.008,0.146-0.057,0.184-0.102c0.041-0.045,0.049-0.086,0.057-0.114c0.017-0.053,0.029-0.077,0.005-0.032
		c0.008-0.017,0.016-0.029,0.021-0.045c0.098-0.322,0.15-0.612,0.31-0.791c0.069-0.069,0.191-0.102,0.33-0.102
		c0.008,0,0.02,0,0.028,0c0.465-0.054,0.88-0.221,1.275-0.359c0.005-0.004,0.013-0.004,0.017-0.004
		c0.146-0.065,0.367-0.139,0.518-0.347c0,0,0,0,0-0.004l0,0C23.929,19.697,23.867,19.456,23.692,19.351L23.692,19.351z"/>
</g>
</svg>
