<?xml version="1.0" encoding="utf-8"?>
<!-- Generator: Adobe Illustrator 16.0.0, SVG Export Plug-In . SVG Version: 6.00 Build 0)  -->
<!DOCTYPE svg PUBLIC "-//W3C//DTD SVG 1.1//EN" "http://www.w3.org/Graphics/SVG/1.1/DTD/svg11.dtd">
<svg version="1.1" id="Layer_1" xmlns="http://www.w3.org/2000/svg" xmlns:xlink="http://www.w3.org/1999/xlink" x="0px" y="0px"
	 width="30px" height="30px" viewBox="0 0 30 30" enable-background="new 0 0 30 30" xml:space="preserve">
<g id="XMLID_1449_">
	<path id="XMLID_1451_" fill="#29A9E1" d="M15,30L15,30C6.716,30,0,23.285,0,15l0,0C0,6.716,6.716,0,15,0l0,0
		c8.284,0,15,6.716,15,15l0,0C30,23.285,23.284,30,15,30z"/>
	<path id="XMLID_1450_" fill="#FFFFFF" d="M7.009,20.021c1.451,0.931,3.175,1.474,5.026,1.474c6.089,0,9.528-5.143,9.321-9.755
		c0.641-0.462,1.196-1.039,1.636-1.697c-0.588,0.26-1.22,0.437-1.883,0.516c0.677-0.405,1.196-1.048,1.441-1.814
		c-0.634,0.376-1.336,0.649-2.082,0.797c-0.599-0.638-1.451-1.035-2.395-1.035c-2.116,0-3.672,1.975-3.194,4.026
		c-2.725-0.137-5.142-1.442-6.759-3.427c-0.858,1.474-0.445,3.402,1.016,4.378c-0.538-0.017-1.045-0.165-1.486-0.41
		c-0.035,1.52,1.054,2.94,2.63,3.257c-0.461,0.126-0.967,0.154-1.479,0.057c0.416,1.303,1.627,2.25,3.063,2.277
		C10.485,19.745,8.748,20.228,7.009,20.021z"/>
</g>
</svg>
