<?xml version="1.0" encoding="utf-8"?>
<!-- Generator: Adobe Illustrator 16.0.0, SVG Export Plug-In . SVG Version: 6.00 Build 0)  -->
<!DOCTYPE svg PUBLIC "-//W3C//DTD SVG 1.1//EN" "http://www.w3.org/Graphics/SVG/1.1/DTD/svg11.dtd">
<svg version="1.1" id="Layer_1" xmlns="http://www.w3.org/2000/svg" xmlns:xlink="http://www.w3.org/1999/xlink" x="0px" y="0px"
	 width="30px" height="30px" viewBox="0 0 30 30" enable-background="new 0 0 30 30" xml:space="preserve">
<g id="XMLID_94_">
	<path id="XMLID_108_" fill="#C3271A" d="M15,30L15,30C6.716,30,0,23.284,0,15l0,0C0,6.716,6.716,0,15,0l0,0c8.284,0,15,6.716,15,15
		l0,0C30,23.284,23.284,30,15,30z"/>
	<g id="XMLID_95_">
		<path id="XMLID_106_" fill="#FFFFFF" d="M26.503,9.184c-0.275-1.04-1.09-1.859-2.122-2.137C22.508,6.542,15,6.542,15,6.542
			s-7.508,0-9.381,0.505C4.587,7.325,3.772,8.144,3.497,9.184C2.995,11.068,2.995,15,2.995,15s0,3.933,0.502,5.816
			c0.275,1.04,1.09,1.858,2.122,2.137C7.492,23.458,15,23.458,15,23.458s7.508,0,9.381-0.505c1.032-0.278,1.847-1.097,2.122-2.137
			C27.005,18.933,27.005,15,27.005,15S27.005,11.068,26.503,9.184z"/>
		<polygon id="XMLID_103_" fill="#C3271A" points="12.544,18.57 12.544,11.43 18.82,15 		"/>
	</g>
</g>
</svg>
